<mxfile host="app.diagrams.net" modified="2023-07-10T10:00:35.463Z" agent="Mozilla/5.0 (Windows NT 10.0; Win64; x64) AppleWebKit/537.36 (KHTML, like Gecko) Chrome/113.0.0.0 Safari/537.36 OPR/99.0.0.0 (Edition std-1)" etag="0Zvkh5pW5Spz2MwhXHbO" version="21.3.4" type="device">
  <diagram id="C5RBs43oDa-KdzZeNtuy" name="Page-1">
    <mxGraphModel dx="1519" dy="511" grid="1" gridSize="10" guides="1" tooltips="1" connect="1" arrows="1" fold="1" page="1" pageScale="1" pageWidth="827" pageHeight="1169" math="0" shadow="0">
      <root>
        <mxCell id="WIyWlLk6GJQsqaUBKTNV-0" />
        <mxCell id="WIyWlLk6GJQsqaUBKTNV-1" parent="WIyWlLk6GJQsqaUBKTNV-0" />
        <mxCell id="25gp-EFNqT9QcWGWewBx-2" value="Enum ResultadoPartida" style="swimlane;fontStyle=0;childLayout=stackLayout;horizontal=1;startSize=30;horizontalStack=0;resizeParent=1;resizeParentMax=0;resizeLast=0;collapsible=1;marginBottom=0;whiteSpace=wrap;html=1;" vertex="1" parent="WIyWlLk6GJQsqaUBKTNV-1">
          <mxGeometry x="670" y="40" width="140" height="60" as="geometry" />
        </mxCell>
        <mxCell id="25gp-EFNqT9QcWGWewBx-52" value=" VITORIA, EMPATE e DERROTA" style="text;html=1;strokeColor=none;fillColor=none;align=center;verticalAlign=middle;whiteSpace=wrap;rounded=0;" vertex="1" parent="25gp-EFNqT9QcWGWewBx-2">
          <mxGeometry y="30" width="140" height="30" as="geometry" />
        </mxCell>
        <mxCell id="25gp-EFNqT9QcWGWewBx-6" value="Enum PosicaoJogador" style="swimlane;fontStyle=0;childLayout=stackLayout;horizontal=1;startSize=30;horizontalStack=0;resizeParent=1;resizeParentMax=0;resizeLast=0;collapsible=1;marginBottom=0;whiteSpace=wrap;html=1;" vertex="1" parent="WIyWlLk6GJQsqaUBKTNV-1">
          <mxGeometry x="60" y="50" width="140" height="80" as="geometry" />
        </mxCell>
        <mxCell id="25gp-EFNqT9QcWGWewBx-51" value=" AVANÇADO, MEDIO, DEFESA e GUARDA_REDES;" style="text;html=1;strokeColor=none;fillColor=none;align=center;verticalAlign=middle;whiteSpace=wrap;rounded=0;" vertex="1" parent="25gp-EFNqT9QcWGWewBx-6">
          <mxGeometry y="30" width="140" height="50" as="geometry" />
        </mxCell>
        <mxCell id="25gp-EFNqT9QcWGWewBx-10" value="Jogador" style="swimlane;fontStyle=0;childLayout=stackLayout;horizontal=1;startSize=30;horizontalStack=0;resizeParent=1;resizeParentMax=0;resizeLast=0;collapsible=1;marginBottom=0;whiteSpace=wrap;html=1;" vertex="1" parent="WIyWlLk6GJQsqaUBKTNV-1">
          <mxGeometry x="140" y="160" width="190" height="130" as="geometry" />
        </mxCell>
        <mxCell id="25gp-EFNqT9QcWGWewBx-64" value="o Construtor(es) adequado(s);&lt;br/&gt;o Métodos getters e setters para os atributos específicos de um jogador;&lt;br/&gt;o Métodos para registar golos marcados e cartões recebidos;" style="text;html=1;strokeColor=none;fillColor=none;align=center;verticalAlign=middle;whiteSpace=wrap;rounded=0;" vertex="1" parent="25gp-EFNqT9QcWGWewBx-10">
          <mxGeometry y="30" width="190" height="100" as="geometry" />
        </mxCell>
        <mxCell id="25gp-EFNqT9QcWGWewBx-14" value="Clube" style="swimlane;fontStyle=0;childLayout=stackLayout;horizontal=1;startSize=30;horizontalStack=0;resizeParent=1;resizeParentMax=0;resizeLast=0;collapsible=1;marginBottom=0;whiteSpace=wrap;html=1;" vertex="1" parent="WIyWlLk6GJQsqaUBKTNV-1">
          <mxGeometry x="500" y="160" width="380" height="160" as="geometry" />
        </mxCell>
        <mxCell id="25gp-EFNqT9QcWGWewBx-62" value="o Construtor(es) adequado(s)&lt;br/&gt;&lt;br&gt;o Métodos getters e setters para os atributos;&lt;br&gt;&amp;nbsp;o Método para adicionar e remover jogadores;&lt;br/&gt;&lt;br&gt;o Método para definir o treinador do clube;&lt;br/&gt;&lt;br&gt;o Método toString() que retorna a representação textual de um clube;" style="text;html=1;align=center;verticalAlign=middle;resizable=0;points=[];autosize=1;strokeColor=none;fillColor=none;" vertex="1" parent="25gp-EFNqT9QcWGWewBx-14">
          <mxGeometry y="30" width="380" height="130" as="geometry" />
        </mxCell>
        <mxCell id="25gp-EFNqT9QcWGWewBx-18" value="gestaoclube" style="swimlane;fontStyle=0;childLayout=stackLayout;horizontal=1;startSize=30;horizontalStack=0;resizeParent=1;resizeParentMax=0;resizeLast=0;collapsible=1;marginBottom=0;whiteSpace=wrap;html=1;" vertex="1" parent="WIyWlLk6GJQsqaUBKTNV-1">
          <mxGeometry x="390" y="40" width="260" height="70" as="geometry" />
        </mxCell>
        <mxCell id="25gp-EFNqT9QcWGWewBx-53" value="&lt;font style=&quot;font-size: 9px;&quot;&gt;o void adicionaClube(Clube c), Método para adicionar um clube;&lt;br&gt;&amp;nbsp;o void removeClube(Clube c), método para remover um clube;&lt;/font&gt;" style="text;html=1;align=center;verticalAlign=middle;resizable=0;points=[];autosize=1;strokeColor=none;fillColor=none;" vertex="1" parent="25gp-EFNqT9QcWGWewBx-18">
          <mxGeometry y="30" width="260" height="40" as="geometry" />
        </mxCell>
        <mxCell id="25gp-EFNqT9QcWGWewBx-22" value="pessoa(super classe)" style="swimlane;fontStyle=0;childLayout=stackLayout;horizontal=1;startSize=30;horizontalStack=0;resizeParent=1;resizeParentMax=0;resizeLast=0;collapsible=1;marginBottom=0;whiteSpace=wrap;html=1;" vertex="1" parent="WIyWlLk6GJQsqaUBKTNV-1">
          <mxGeometry x="-10" y="380" width="200" height="110" as="geometry" />
        </mxCell>
        <mxCell id="25gp-EFNqT9QcWGWewBx-63" value="o Construtor(es) adequado(s);&lt;br&gt;&amp;nbsp;o Métodos getters e setters para os atributos;" style="text;html=1;strokeColor=none;fillColor=none;align=center;verticalAlign=middle;whiteSpace=wrap;rounded=0;" vertex="1" parent="25gp-EFNqT9QcWGWewBx-22">
          <mxGeometry y="30" width="200" height="80" as="geometry" />
        </mxCell>
        <mxCell id="25gp-EFNqT9QcWGWewBx-26" value="Treinador" style="swimlane;fontStyle=0;childLayout=stackLayout;horizontal=1;startSize=30;horizontalStack=0;resizeParent=1;resizeParentMax=0;resizeLast=0;collapsible=1;marginBottom=0;whiteSpace=wrap;html=1;" vertex="1" parent="WIyWlLk6GJQsqaUBKTNV-1">
          <mxGeometry x="310" y="320" width="170" height="90" as="geometry" />
        </mxCell>
        <mxCell id="25gp-EFNqT9QcWGWewBx-65" value="o Construtor(es) adequado(s);&lt;br/&gt;o Métodos getters e setters para os atributos específicos de um treinador;" style="text;html=1;strokeColor=none;fillColor=none;align=center;verticalAlign=middle;whiteSpace=wrap;rounded=0;" vertex="1" parent="25gp-EFNqT9QcWGWewBx-26">
          <mxGeometry y="30" width="170" height="60" as="geometry" />
        </mxCell>
        <mxCell id="25gp-EFNqT9QcWGWewBx-30" value="campeonato" style="swimlane;fontStyle=0;childLayout=stackLayout;horizontal=1;startSize=30;horizontalStack=0;resizeParent=1;resizeParentMax=0;resizeLast=0;collapsible=1;marginBottom=0;whiteSpace=wrap;html=1;" vertex="1" parent="WIyWlLk6GJQsqaUBKTNV-1">
          <mxGeometry x="605" y="370" width="280" height="120" as="geometry" />
        </mxCell>
        <mxCell id="25gp-EFNqT9QcWGWewBx-66" value="o Construtor(es) adequado(s);&lt;br/&gt;o Métodos getters e setters para os atributos;&lt;br/&gt;o Método para adicionar e remover clubes participantes;&lt;br/&gt;o Método para atualizar a tabela classificativa do campeonato;" style="text;html=1;strokeColor=none;fillColor=none;align=center;verticalAlign=middle;whiteSpace=wrap;rounded=0;" vertex="1" parent="25gp-EFNqT9QcWGWewBx-30">
          <mxGeometry y="30" width="280" height="90" as="geometry" />
        </mxCell>
        <mxCell id="25gp-EFNqT9QcWGWewBx-34" value="" style="endArrow=none;html=1;rounded=0;entryX=0.75;entryY=1;entryDx=0;entryDy=0;exitX=0.5;exitY=0;exitDx=0;exitDy=0;" edge="1" parent="WIyWlLk6GJQsqaUBKTNV-1" source="25gp-EFNqT9QcWGWewBx-10" target="25gp-EFNqT9QcWGWewBx-6">
          <mxGeometry width="50" height="50" relative="1" as="geometry">
            <mxPoint x="420" y="330" as="sourcePoint" />
            <mxPoint x="470" y="280" as="targetPoint" />
          </mxGeometry>
        </mxCell>
        <mxCell id="25gp-EFNqT9QcWGWewBx-35" value="" style="endArrow=none;html=1;rounded=0;entryX=1;entryY=0.5;entryDx=0;entryDy=0;exitX=0.5;exitY=0;exitDx=0;exitDy=0;" edge="1" parent="WIyWlLk6GJQsqaUBKTNV-1" source="25gp-EFNqT9QcWGWewBx-47" target="25gp-EFNqT9QcWGWewBx-47">
          <mxGeometry width="50" height="50" relative="1" as="geometry">
            <mxPoint x="420" y="330" as="sourcePoint" />
            <mxPoint x="470" y="280" as="targetPoint" />
          </mxGeometry>
        </mxCell>
        <mxCell id="25gp-EFNqT9QcWGWewBx-36" value="" style="endArrow=none;html=1;rounded=0;exitX=1;exitY=0.25;exitDx=0;exitDy=0;entryX=0;entryY=0.25;entryDx=0;entryDy=0;" edge="1" parent="WIyWlLk6GJQsqaUBKTNV-1" source="25gp-EFNqT9QcWGWewBx-49" target="25gp-EFNqT9QcWGWewBx-26">
          <mxGeometry width="50" height="50" relative="1" as="geometry">
            <mxPoint x="420" y="330" as="sourcePoint" />
            <mxPoint x="470" y="280" as="targetPoint" />
            <Array as="points" />
          </mxGeometry>
        </mxCell>
        <mxCell id="25gp-EFNqT9QcWGWewBx-37" value="" style="endArrow=none;html=1;rounded=0;exitX=0.5;exitY=1;exitDx=0;exitDy=0;entryX=0.5;entryY=0;entryDx=0;entryDy=0;" edge="1" parent="WIyWlLk6GJQsqaUBKTNV-1" source="25gp-EFNqT9QcWGWewBx-18" target="25gp-EFNqT9QcWGWewBx-14">
          <mxGeometry width="50" height="50" relative="1" as="geometry">
            <mxPoint x="420" y="330" as="sourcePoint" />
            <mxPoint x="470" y="280" as="targetPoint" />
          </mxGeometry>
        </mxCell>
        <mxCell id="25gp-EFNqT9QcWGWewBx-38" value="" style="endArrow=none;html=1;rounded=0;entryX=0.5;entryY=1;entryDx=0;entryDy=0;exitX=0.5;exitY=0;exitDx=0;exitDy=0;" edge="1" parent="WIyWlLk6GJQsqaUBKTNV-1" source="25gp-EFNqT9QcWGWewBx-14" target="25gp-EFNqT9QcWGWewBx-2">
          <mxGeometry width="50" height="50" relative="1" as="geometry">
            <mxPoint x="420" y="330" as="sourcePoint" />
            <mxPoint x="470" y="280" as="targetPoint" />
          </mxGeometry>
        </mxCell>
        <mxCell id="25gp-EFNqT9QcWGWewBx-39" value="" style="endArrow=none;html=1;rounded=0;entryX=0.5;entryY=0;entryDx=0;entryDy=0;exitX=0.5;exitY=1;exitDx=0;exitDy=0;" edge="1" parent="WIyWlLk6GJQsqaUBKTNV-1" source="25gp-EFNqT9QcWGWewBx-14" target="25gp-EFNqT9QcWGWewBx-30">
          <mxGeometry width="50" height="50" relative="1" as="geometry">
            <mxPoint x="420" y="330" as="sourcePoint" />
            <mxPoint x="470" y="280" as="targetPoint" />
          </mxGeometry>
        </mxCell>
        <mxCell id="25gp-EFNqT9QcWGWewBx-40" value="" style="endArrow=none;html=1;rounded=0;exitX=1;exitY=0.5;exitDx=0;exitDy=0;entryX=0;entryY=0.5;entryDx=0;entryDy=0;" edge="1" parent="WIyWlLk6GJQsqaUBKTNV-1" source="25gp-EFNqT9QcWGWewBx-26" target="25gp-EFNqT9QcWGWewBx-14">
          <mxGeometry width="50" height="50" relative="1" as="geometry">
            <mxPoint x="420" y="330" as="sourcePoint" />
            <mxPoint x="470" y="280" as="targetPoint" />
          </mxGeometry>
        </mxCell>
        <mxCell id="25gp-EFNqT9QcWGWewBx-41" value="" style="endArrow=none;html=1;rounded=0;exitX=1;exitY=0.25;exitDx=0;exitDy=0;entryX=0;entryY=0.25;entryDx=0;entryDy=0;" edge="1" parent="WIyWlLk6GJQsqaUBKTNV-1" source="25gp-EFNqT9QcWGWewBx-10" target="25gp-EFNqT9QcWGWewBx-14">
          <mxGeometry width="50" height="50" relative="1" as="geometry">
            <mxPoint x="420" y="330" as="sourcePoint" />
            <mxPoint x="470" y="280" as="targetPoint" />
          </mxGeometry>
        </mxCell>
        <mxCell id="25gp-EFNqT9QcWGWewBx-42" value="Run" style="swimlane;fontStyle=0;childLayout=stackLayout;horizontal=1;startSize=30;horizontalStack=0;resizeParent=1;resizeParentMax=0;resizeLast=0;collapsible=1;marginBottom=0;whiteSpace=wrap;html=1;" vertex="1" parent="WIyWlLk6GJQsqaUBKTNV-1">
          <mxGeometry x="390" y="480" width="145" height="60" as="geometry" />
        </mxCell>
        <mxCell id="25gp-EFNqT9QcWGWewBx-67" value="Onde o programa corre" style="text;html=1;align=center;verticalAlign=middle;resizable=0;points=[];autosize=1;strokeColor=none;fillColor=none;" vertex="1" parent="25gp-EFNqT9QcWGWewBx-42">
          <mxGeometry y="30" width="145" height="30" as="geometry" />
        </mxCell>
        <mxCell id="25gp-EFNqT9QcWGWewBx-46" value="" style="endArrow=none;html=1;rounded=0;exitX=1;exitY=0.25;exitDx=0;exitDy=0;entryX=0.094;entryY=1.04;entryDx=0;entryDy=0;entryPerimeter=0;" edge="1" parent="WIyWlLk6GJQsqaUBKTNV-1" source="25gp-EFNqT9QcWGWewBx-42" target="25gp-EFNqT9QcWGWewBx-62">
          <mxGeometry width="50" height="50" relative="1" as="geometry">
            <mxPoint x="420" y="330" as="sourcePoint" />
            <mxPoint x="570" y="230" as="targetPoint" />
          </mxGeometry>
        </mxCell>
        <mxCell id="25gp-EFNqT9QcWGWewBx-48" value="" style="endArrow=none;html=1;rounded=0;entryX=0;entryY=0.5;entryDx=0;entryDy=0;exitX=0.5;exitY=0;exitDx=0;exitDy=0;" edge="1" parent="WIyWlLk6GJQsqaUBKTNV-1" source="25gp-EFNqT9QcWGWewBx-22" target="25gp-EFNqT9QcWGWewBx-47">
          <mxGeometry width="50" height="50" relative="1" as="geometry">
            <mxPoint x="110" y="260" as="sourcePoint" />
            <mxPoint x="210" y="220" as="targetPoint" />
          </mxGeometry>
        </mxCell>
        <mxCell id="25gp-EFNqT9QcWGWewBx-47" value="" style="triangle;whiteSpace=wrap;html=1;rotation=-90;" vertex="1" parent="WIyWlLk6GJQsqaUBKTNV-1">
          <mxGeometry x="190" y="290" width="22.5" height="30" as="geometry" />
        </mxCell>
        <mxCell id="25gp-EFNqT9QcWGWewBx-50" value="" style="endArrow=none;html=1;rounded=0;exitX=1;exitY=0.25;exitDx=0;exitDy=0;entryX=0;entryY=0.5;entryDx=0;entryDy=0;" edge="1" parent="WIyWlLk6GJQsqaUBKTNV-1" source="25gp-EFNqT9QcWGWewBx-22" target="25gp-EFNqT9QcWGWewBx-49">
          <mxGeometry width="50" height="50" relative="1" as="geometry">
            <mxPoint x="180" y="275" as="sourcePoint" />
            <mxPoint x="270" y="275" as="targetPoint" />
            <Array as="points" />
          </mxGeometry>
        </mxCell>
        <mxCell id="25gp-EFNqT9QcWGWewBx-49" value="" style="triangle;whiteSpace=wrap;html=1;rotation=0;" vertex="1" parent="WIyWlLk6GJQsqaUBKTNV-1">
          <mxGeometry x="287.5" y="320" width="22.5" height="30" as="geometry" />
        </mxCell>
        <mxCell id="25gp-EFNqT9QcWGWewBx-54" value="gestaocampeonato" style="swimlane;fontStyle=0;childLayout=stackLayout;horizontal=1;startSize=30;horizontalStack=0;resizeParent=1;resizeParentMax=0;resizeLast=0;collapsible=1;marginBottom=0;whiteSpace=wrap;html=1;" vertex="1" parent="WIyWlLk6GJQsqaUBKTNV-1">
          <mxGeometry x="630" y="560" width="140" height="80" as="geometry" />
        </mxCell>
        <mxCell id="25gp-EFNqT9QcWGWewBx-55" value=" Método para atualizar a tabela classificativa de um campeonato;" style="text;strokeColor=none;fillColor=none;align=left;verticalAlign=middle;spacingLeft=4;spacingRight=4;overflow=hidden;points=[[0,0.5],[1,0.5]];portConstraint=eastwest;rotatable=0;whiteSpace=wrap;html=1;" vertex="1" parent="25gp-EFNqT9QcWGWewBx-54">
          <mxGeometry y="30" width="140" height="50" as="geometry" />
        </mxCell>
        <mxCell id="25gp-EFNqT9QcWGWewBx-59" value="" style="endArrow=none;html=1;rounded=0;entryX=0.5;entryY=1;entryDx=0;entryDy=0;" edge="1" parent="WIyWlLk6GJQsqaUBKTNV-1" source="25gp-EFNqT9QcWGWewBx-58" target="25gp-EFNqT9QcWGWewBx-30">
          <mxGeometry width="50" height="50" relative="1" as="geometry">
            <mxPoint x="675" y="480" as="sourcePoint" />
            <mxPoint x="640" y="360" as="targetPoint" />
            <Array as="points" />
          </mxGeometry>
        </mxCell>
        <mxCell id="25gp-EFNqT9QcWGWewBx-60" value="" style="endArrow=none;html=1;rounded=0;entryX=0;entryY=0.5;entryDx=0;entryDy=0;exitX=0.5;exitY=0;exitDx=0;exitDy=0;" edge="1" parent="WIyWlLk6GJQsqaUBKTNV-1" source="25gp-EFNqT9QcWGWewBx-54" target="25gp-EFNqT9QcWGWewBx-58">
          <mxGeometry width="50" height="50" relative="1" as="geometry">
            <mxPoint x="675" y="480" as="sourcePoint" />
            <mxPoint x="675" y="440" as="targetPoint" />
            <Array as="points" />
          </mxGeometry>
        </mxCell>
        <mxCell id="25gp-EFNqT9QcWGWewBx-58" value="" style="triangle;whiteSpace=wrap;html=1;rotation=-90;" vertex="1" parent="WIyWlLk6GJQsqaUBKTNV-1">
          <mxGeometry x="730" y="490" width="30" height="40" as="geometry" />
        </mxCell>
      </root>
    </mxGraphModel>
  </diagram>
</mxfile>
